<svg enable-background="new 0 0 24 24" height="24" viewBox="0 0 24 24" width="24" xmlns="http://www.w3.org/2000/svg"><path d="m.7 17.1h19.1c.4 0 .7-.3.7-.7v-2.1c0-.4-.3-.7-.7-.7h-19.1c-.4.1-.7.4-.7.8v2.1c0 .3.3.6.7.6zm0-13.7h14.1c.4 0 .7-.3.7-.7v-2c0-.4-.3-.7-.7-.7h-14.1c-.4 0-.7.3-.7.7v2.1c0 .3.3.6.7.6zm22.4 3.5h-22.2c-.5 0-.9.3-.9.8v1.7c0 .5.4.9.9.9h22.3c.5 0 .9-.4.9-.9v-1.7c-.1-.5-.5-.8-1-.8zm0 13.7h-22.2c-.5 0-.9.4-.9.8v1.7c0 .5.4.9.9.9h22.3c.5 0 .9-.4.9-.9v-1.7c-.1-.4-.5-.8-1-.8z"/><path d="m0 0h25v24h-25z" fill="none"/></svg>