<svg enable-background="new 0 0 24 24" height="24" viewBox="0 0 24 24" width="24" xmlns="http://www.w3.org/2000/svg"><path d="m21.6 4v16h1.6c.4 0 .8.4.8.8v1.6c0 .4-.4.8-.8.8h-8c-.4 0-.8-.4-.8-.8v-1.6c0-.4.4-.8.8-.8h1.6v-6.4h-9.6v6.4h1.6c.4 0 .8.4.8.8v1.6c0 .4-.4.8-.8.8h-8c-.4 0-.8-.4-.8-.8v-1.6c0-.4.4-.8.8-.8h1.6v-16h-1.6c-.4 0-.8-.4-.8-.8v-1.6c0-.4.4-.8.8-.8h8c.4 0 .8.4.8.8v1.6c0 .4-.4.8-.8.8h-1.6v6.4h9.6v-6.4h-1.6c-.4 0-.8-.4-.8-.8v-1.6c0-.4.4-.8.8-.8h8c.4 0 .8.4.8.8v1.6c0 .4-.4.8-.8.8z"/><path d="m0 0h24v24h-24z" fill="none"/></svg>