<svg enable-background="new 0 0 24 24" height="24" viewBox="0 0 24 24" width="24" xmlns="http://www.w3.org/2000/svg"><path d="m12 0c-3.7 0-6.1 1.5-8 4.3-.4.5-.3 1.1.2 1.5l2 1.5c.5.4 1.2.3 1.6-.2 1.2-1.5 2-2.3 3.9-2.3 1.4 0 3.2.9 3.2 2.3 0 1.1-.9 1.6-2.3 2.4-1.7.9-3.9 2.1-3.9 5v.5c0 .6.5 1.1 1.1 1.1h3.4c.6 0 1.1-.5 1.1-1.1v-.3c0-2 5.9-2.1 5.9-7.5 0-4.1-4.2-7.2-8.2-7.2zm-.4 17.5c-1.8 0-3.2 1.5-3.2 3.2 0 1.8 1.5 3.2 3.2 3.2s3.2-1.5 3.2-3.2-1.5-3.2-3.2-3.2z"/><path d="m0 0h24v24h-24z" fill="none"/></svg>