<svg enable-background="new 0 0 24 24" height="24" viewBox="0 0 24 24" width="24" xmlns="http://www.w3.org/2000/svg"><path d="m7 17h-6.3c-.4 0-.7-.5-.7-1.2v-7.6c0-.7.3-1.2.7-1.2h6.3c.4 0 .7.6.7 1.3v7.5c0 .7-.3 1.2-.7 1.2zm-5.3-8.6c-.5 0-.8.7-.8 1.5s.4 1.5.8 1.5.8-.7.8-1.5-.4-1.5-.8-1.5zm-.7 6.9h5.8v-2.9l-1.3-2.3c-.1-.1-.2-.1-.3 0l-2 3.5-.8-1.4c-.1-.1-.2-.1-.3 0l-1.1 1.9z"/><path d="m15.1 17h-6.2c-.4 0-.7-.6-.7-1.3v-7.5c0-.7.3-1.2.7-1.2h6.2c.4 0 .7.6.7 1.3v7.5c0 .7-.3 1.2-.7 1.2zm-5.3-8.6c-.4 0-.8.7-.8 1.5s.4 1.5.8 1.5c.5 0 .8-.7.8-1.5.1-.8-.3-1.5-.8-1.5zm-.7 6.9h5.8v-2.9l-1.3-2.3c-.1-.1-.2-.1-.3 0l-2 3.5-.8-1.4c-.1-.1-.2-.1-.3 0l-1.1 1.9z"/><path d="m23.3 17h-6.3c-.4 0-.7-.6-.7-1.3v-7.5c0-.7.3-1.2.7-1.2h6.2c.5 0 .8.5.8 1.2v7.5c0 .8-.3 1.3-.7 1.3zm-5.3-8.6c-.5 0-.8.7-.8 1.5s.4 1.5.8 1.5.8-.7.8-1.5-.3-1.5-.8-1.5zm-.7 6.9h5.7v-2.9l-1.3-2.3c-.1-.1-.2-.1-.3 0l-2 3.5-.8-1.4c-.1-.1-.2-.1-.3 0l-1.1 1.9z"/><path d="m0 0h24v24h-24z" fill="none"/></svg>