<svg enable-background="new 0 0 24 24" height="24" viewBox="0 0 24 24" width="24" xmlns="http://www.w3.org/2000/svg"><path d="m10.87 17.72h-9.74c-.63 0-1.13-.64-1.13-1.43v-8.58c0-.79.5-1.43 1.13-1.43h9.74c.63 0 1.13.64 1.13 1.43v8.58c0 .79-.5 1.43-1.13 1.43zm-8.24-9.78c-.73 0-1.31.75-1.31 1.66 0 .92.59 1.66 1.31 1.66s1.31-.75 1.31-1.66-.59-1.66-1.31-1.66zm-1.13 7.87h9v-3.34l-2.05-2.59c-.11-.14-.29-.14-.4 0l-3.18 4.03-1.3-1.65c-.11-.14-.29-.14-.4 0l-1.67 2.12z"/><path d="m22.87 17.72h-9.74c-.62 0-1.13-.64-1.13-1.43v-8.58c0-.79.5-1.43 1.13-1.43h9.74c.63 0 1.13.64 1.13 1.43v8.58c0 .79-.5 1.43-1.13 1.43zm-8.24-9.78c-.73 0-1.31.75-1.31 1.66 0 .92.59 1.66 1.31 1.66s1.31-.75 1.31-1.66-.59-1.66-1.31-1.66zm-1.13 7.87h9v-3.34l-2.05-2.61c-.11-.14-.29-.14-.4 0l-3.18 4.03-1.3-1.65c-.11-.14-.29-.14-.4 0l-1.68 2.12z"/><path d="m0 0h24v24h-24z" fill="none"/></svg>