<svg enable-background="new 0 0 24 24" height="24" viewBox="0 0 24 24" width="24" xmlns="http://www.w3.org/2000/svg"><path d="m22.4 7.16c-.09 2.03-1.51 4.8-4.24 8.32-2.84 3.68-5.23 5.52-7.19 5.52-1.21 0-2.24-1.12-3.08-3.36-.56-2.05-1.12-4.1-1.68-6.16-.62-2.24-1.29-3.36-2-3.36-.16 0-.7.33-1.63.98l-.99-1.26c1.03-.9 2.04-1.81 3.04-2.71 1.37-1.18 2.4-1.8 3.09-1.86 1.62-.16 2.62.95 2.99 3.32.4 2.56.69 4.15.84 4.77.47 2.12.98 3.18 1.54 3.18.44 0 1.09-.69 1.96-2.06.87-1.38 1.34-2.42 1.4-3.14.12-1.19-.34-1.78-1.4-1.78-.5 0-1.01.11-1.54.34 1.02-3.35 2.98-4.98 5.86-4.88 2.14.05 3.15 1.43 3.03 4.14z"/><path d="m0 0h24v24h-24z" fill="none"/></svg>